<svg width="159" height="26" viewBox="0 0 159 26" fill="none" xmlns="http://www.w3.org/2000/svg">
<g filter="url(#filter0_d_3_4)">
<path d="M3.99 17C3.99 17 4.11467 16.802 4.364 16.406C4.61333 16.01 4.94333 15.482 5.354 14.822C5.77933 14.162 6.24867 13.414 6.762 12.578C7.29 11.742 7.82533 10.884 8.368 10.004C8.92533 9.124 9.46067 8.266 9.974 7.43C10.502 6.594 10.9713 5.846 11.382 5.186C11.8073 4.526 12.1447 3.998 12.394 3.602C12.6433 3.206 12.768 3.008 12.768 3.008L13.12 3.888H7.29C6.982 3.888 6.65933 3.822 6.322 3.69C5.99933 3.54333 5.72067 3.35267 5.486 3.118C5.266 2.86867 5.156 2.59733 5.156 2.304V-0.00600135H8.082V0.301999C8.082 0.624665 8.13333 0.793332 8.236 0.807999C8.33867 0.807999 8.522 0.807999 8.786 0.807999H17.784L9.248 14.272L9.072 13.92H17.762V17H3.99ZM19.713 12.072C19.713 11.0893 19.9403 10.2093 20.395 9.432C20.8643 8.65467 21.517 8.046 22.353 7.606C23.189 7.15133 24.1496 6.924 25.235 6.924C26.335 6.924 27.2883 7.15133 28.095 7.606C28.9016 8.046 29.5176 8.65467 29.943 9.432C30.383 10.2093 30.603 11.0893 30.603 12.072C30.603 13.0547 30.383 13.942 29.943 14.734C29.5176 15.5113 28.9016 16.1273 28.095 16.582C27.2883 17.0367 26.3203 17.264 25.191 17.264C24.135 17.264 23.189 17.0587 22.353 16.648C21.5316 16.2373 20.8863 15.6433 20.417 14.866C19.9476 14.0887 19.713 13.1573 19.713 12.072ZM22.815 12.094C22.815 12.5927 22.9176 13.0473 23.123 13.458C23.3283 13.854 23.607 14.1693 23.959 14.404C24.311 14.6387 24.707 14.756 25.147 14.756C25.631 14.756 26.049 14.6387 26.401 14.404C26.753 14.1693 27.0243 13.854 27.215 13.458C27.4056 13.0473 27.501 12.5927 27.501 12.094C27.501 11.5807 27.4056 11.126 27.215 10.73C27.0243 10.334 26.753 10.0187 26.401 9.784C26.049 9.54933 25.631 9.432 25.147 9.432C24.707 9.432 24.311 9.54933 23.959 9.784C23.607 10.0187 23.3283 10.334 23.123 10.73C22.9176 11.126 22.815 11.5807 22.815 12.094ZM35.8233 7.386L36.0653 9.102L36.0213 8.948C36.3586 8.34667 36.8353 7.86267 37.4513 7.496C38.0673 7.11467 38.8226 6.924 39.7173 6.924C40.6266 6.924 41.382 7.19533 41.9833 7.738C42.5993 8.266 42.9146 8.95533 42.9293 9.806V17H39.8493V10.95C39.8346 10.5247 39.7173 10.1873 39.4973 9.938C39.292 9.674 38.94 9.542 38.4413 9.542C37.972 9.542 37.5613 9.696 37.2093 10.004C36.8573 10.312 36.586 10.73 36.3953 11.258C36.2046 11.786 36.1093 12.3947 36.1093 13.084V17H33.0293V7.386H35.8233ZM50.1398 17.264C49.2451 17.264 48.4311 17.088 47.6978 16.736C46.9791 16.3693 46.4071 15.812 45.9818 15.064C45.5565 14.316 45.3438 13.3627 45.3438 12.204C45.3438 11.1187 45.5638 10.18 46.0038 9.388C46.4438 8.596 47.0231 7.98733 47.7418 7.562C48.4605 7.122 49.2231 6.902 50.0298 6.902C50.9831 6.902 51.7018 7.06333 52.1858 7.386C52.6845 7.694 53.0951 8.03867 53.4178 8.42L53.2858 8.794L53.5718 7.386H56.4318V17H53.3518V14.91L53.5938 15.57C53.5645 15.57 53.4765 15.658 53.3298 15.834C53.1831 15.9953 52.9631 16.1933 52.6698 16.428C52.3911 16.648 52.0391 16.8387 51.6138 17C51.2031 17.176 50.7118 17.264 50.1398 17.264ZM51.0198 14.756C51.3865 14.756 51.7165 14.7047 52.0098 14.602C52.3031 14.4847 52.5598 14.3233 52.7798 14.118C52.9998 13.898 53.1905 13.6267 53.3518 13.304V10.95C53.2345 10.6273 53.0585 10.356 52.8238 10.136C52.5891 9.90133 52.3105 9.72533 51.9878 9.608C51.6651 9.476 51.3058 9.41 50.9098 9.41C50.4698 9.41 50.0591 9.52733 49.6778 9.762C49.3111 9.982 49.0178 10.29 48.7978 10.686C48.5778 11.082 48.4678 11.5367 48.4678 12.05C48.4678 12.5633 48.5851 13.0253 48.8198 13.436C49.0545 13.8467 49.3625 14.1693 49.7438 14.404C50.1398 14.6387 50.5651 14.756 51.0198 14.756Z" fill="white" fill-opacity="0.8" shape-rendering="crispEdges"/>
<path d="M67.2658 17V0.807999H72.1058C73.7338 0.807999 75.1198 1.05 76.2638 1.534C77.4078 2.018 78.3244 2.66333 79.0138 3.47C79.7178 4.27667 80.2311 5.17867 80.5538 6.176C80.8764 7.17333 81.0378 8.178 81.0378 9.19C81.0378 10.3927 80.8178 11.478 80.3778 12.446C79.9524 13.3993 79.3658 14.2207 78.6178 14.91C77.8698 15.5847 77.0044 16.1053 76.0218 16.472C75.0391 16.824 73.9978 17 72.8978 17H67.2658ZM70.4558 13.92H72.3478C73.1544 13.92 73.8878 13.8173 74.5478 13.612C75.2078 13.392 75.7724 13.0767 76.2418 12.666C76.7258 12.2553 77.0924 11.742 77.3418 11.126C77.6058 10.4953 77.7378 9.77667 77.7378 8.97C77.7378 7.914 77.5618 7.056 77.2098 6.396C76.8724 5.72133 76.4471 5.20067 75.9338 4.834C75.4351 4.46733 74.9218 4.218 74.3938 4.086C73.8658 3.93933 73.4184 3.866 73.0518 3.866H70.4558V13.92ZM84.1724 4.702L82.5884 4.086C82.9111 3.79267 83.1751 3.36733 83.3804 2.81C83.5858 2.25267 83.6371 1.71733 83.5344 1.204L85.8884 1.05C85.9764 1.46067 85.9398 1.91533 85.7784 2.414C85.6318 2.91267 85.4118 3.36733 85.1184 3.778C84.8398 4.18867 84.5244 4.49667 84.1724 4.702ZM100.018 13.876H105.034V17H95.8383L100.018 13.876ZM87.5883 8.926C87.5883 7.81133 87.8009 6.75533 88.2263 5.758C88.6516 4.76067 89.2383 3.88067 89.9863 3.118C90.7489 2.34067 91.6289 1.732 92.6263 1.292C93.6236 0.851999 94.6943 0.632 95.8383 0.632C96.9676 0.632 98.0309 0.851999 99.0283 1.292C100.026 1.732 100.906 2.34067 101.668 3.118C102.446 3.88067 103.047 4.76067 103.472 5.758C103.912 6.75533 104.132 7.81133 104.132 8.926C104.132 10.07 103.912 11.1407 103.472 12.138C103.047 13.1353 102.446 14.0153 101.668 14.778C100.906 15.526 100.026 16.1127 99.0283 16.538C98.0309 16.9633 96.9676 17.176 95.8383 17.176C94.6943 17.176 93.6236 16.9633 92.6263 16.538C91.6289 16.1127 90.7489 15.526 89.9863 14.778C89.2383 14.0153 88.6516 13.1353 88.2263 12.138C87.8009 11.1407 87.5883 10.07 87.5883 8.926ZM90.8883 8.926C90.8883 9.63 91.0129 10.2973 91.2623 10.928C91.5263 11.544 91.8856 12.094 92.3403 12.578C92.8096 13.0473 93.3449 13.414 93.9463 13.678C94.5623 13.942 95.2296 14.074 95.9483 14.074C96.6376 14.074 97.2756 13.942 97.8623 13.678C98.4636 13.414 98.9843 13.0473 99.4243 12.578C99.8643 12.1087 100.209 11.566 100.458 10.95C100.708 10.3193 100.832 9.64467 100.832 8.926C100.832 8.222 100.7 7.562 100.436 6.946C100.187 6.31533 99.8349 5.76533 99.3803 5.296C98.9403 4.82667 98.4196 4.46 97.8183 4.196C97.2169 3.932 96.5643 3.8 95.8603 3.8C95.1563 3.8 94.5036 3.932 93.9023 4.196C93.3009 4.46 92.7729 4.82667 92.3183 5.296C91.8636 5.76533 91.5116 6.31533 91.2623 6.946C91.0129 7.562 90.8883 8.222 90.8883 8.926ZM110.811 17.462C109.946 17.462 109.22 17.198 108.633 16.67C108.046 16.1273 107.738 15.4307 107.709 14.58V7.386H110.789V13.436C110.818 13.8613 110.928 14.206 111.119 14.47C111.31 14.7193 111.632 14.844 112.087 14.844C112.542 14.844 112.93 14.69 113.253 14.382C113.59 14.074 113.847 13.656 114.023 13.128C114.214 12.5853 114.309 11.9767 114.309 11.302V7.386H117.389V17H114.595L114.353 15.24L114.397 15.438C114.177 15.834 113.898 16.186 113.561 16.494C113.224 16.802 112.82 17.0367 112.351 17.198C111.896 17.374 111.383 17.462 110.811 17.462ZM125.287 17.264C124.113 17.264 123.116 17.044 122.295 16.604C121.488 16.164 120.872 15.5553 120.447 14.778C120.021 14.0007 119.809 13.106 119.809 12.094C119.809 11.126 120.058 10.2533 120.557 9.476C121.055 8.69867 121.723 8.08267 122.559 7.628C123.395 7.15867 124.326 6.924 125.353 6.924C126.731 6.924 127.861 7.32733 128.741 8.134C129.635 8.926 130.215 10.0773 130.479 11.588L122.999 13.964L122.317 12.292L127.729 10.466L127.091 10.752C126.973 10.3707 126.761 10.0407 126.453 9.762C126.159 9.46867 125.712 9.322 125.111 9.322C124.656 9.322 124.253 9.432 123.901 9.652C123.563 9.85733 123.299 10.158 123.109 10.554C122.933 10.9353 122.845 11.39 122.845 11.918C122.845 12.5193 122.955 13.0253 123.175 13.436C123.395 13.832 123.695 14.1327 124.077 14.338C124.458 14.5433 124.883 14.646 125.353 14.646C125.69 14.646 126.013 14.5873 126.321 14.47C126.643 14.3527 126.959 14.1987 127.267 14.008L128.631 16.296C128.117 16.5893 127.56 16.824 126.959 17C126.372 17.176 125.815 17.264 125.287 17.264ZM137.447 17.264C136.273 17.264 135.276 17.044 134.455 16.604C133.648 16.164 133.032 15.5553 132.607 14.778C132.181 14.0007 131.969 13.106 131.969 12.094C131.969 11.126 132.218 10.2533 132.717 9.476C133.215 8.69867 133.883 8.08267 134.719 7.628C135.555 7.15867 136.486 6.924 137.513 6.924C138.891 6.924 140.021 7.32733 140.901 8.134C141.795 8.926 142.375 10.0773 142.639 11.588L135.159 13.964L134.477 12.292L139.889 10.466L139.251 10.752C139.133 10.3707 138.921 10.0407 138.613 9.762C138.319 9.46867 137.872 9.322 137.271 9.322C136.816 9.322 136.413 9.432 136.061 9.652C135.723 9.85733 135.459 10.158 135.269 10.554C135.093 10.9353 135.005 11.39 135.005 11.918C135.005 12.5193 135.115 13.0253 135.335 13.436C135.555 13.832 135.855 14.1327 136.237 14.338C136.618 14.5433 137.043 14.646 137.513 14.646C137.85 14.646 138.173 14.5873 138.481 14.47C138.803 14.3527 139.119 14.1987 139.427 14.008L140.791 16.296C140.277 16.5893 139.72 16.824 139.119 17C138.532 17.176 137.975 17.264 137.447 17.264ZM147.671 7.386L147.913 9.102L147.869 8.948C148.206 8.34667 148.683 7.86267 149.299 7.496C149.915 7.11467 150.67 6.924 151.565 6.924C152.474 6.924 153.23 7.19533 153.831 7.738C154.447 8.266 154.762 8.95533 154.777 9.806V17H151.697V10.95C151.682 10.5247 151.565 10.1873 151.345 9.938C151.14 9.674 150.788 9.542 150.289 9.542C149.82 9.542 149.409 9.696 149.057 10.004C148.705 10.312 148.434 10.73 148.243 11.258C148.052 11.786 147.957 12.3947 147.957 13.084V17H144.877V7.386H147.671Z" fill="black" shape-rendering="crispEdges"/>
</g>
<defs>
<filter id="filter0_d_3_4" x="-0.0100098" y="-0.00598145" width="158.787" height="25.468" filterUnits="userSpaceOnUse" color-interpolation-filters="sRGB">
<feFlood flood-opacity="0" result="BackgroundImageFix"/>
<feColorMatrix in="SourceAlpha" type="matrix" values="0 0 0 0 0 0 0 0 0 0 0 0 0 0 0 0 0 0 127 0" result="hardAlpha"/>
<feOffset dy="4"/>
<feGaussianBlur stdDeviation="2"/>
<feComposite in2="hardAlpha" operator="out"/>
<feColorMatrix type="matrix" values="0 0 0 0 0 0 0 0 0 0 0 0 0 0 0 0 0 0 0.25 0"/>
<feBlend mode="normal" in2="BackgroundImageFix" result="effect1_dropShadow_3_4"/>
<feBlend mode="normal" in="SourceGraphic" in2="effect1_dropShadow_3_4" result="shape"/>
</filter>
</defs>
</svg>
